<svg xmlns="http://www.w3.org/2000/svg" xmlns:xlink="http://www.w3.org/1999/xlink" width="178pt" height="185pt" viewBox="0.00 0.00 178.00 185.00">
<g id="graph0" class="graph" transform="scale(1 1) rotate(0) translate(4 181)">
<polygon fill="white" stroke="none" points="-4,4 -4,-181 174,-181 174,4 -4,4"/>
<!-- Pet -->
<g id="node1" class="node">
<title>Pet</title>
<g id="a_node1"><a xlink:title="→ Owner
→ Species
nickname             
------------------------------
birthdate            
">
<polygon fill="#00ff00" fill-opacity="0.188235" stroke="#00ff00" stroke-opacity="0.188235" points="43.5,-106 8.5,-106 8.5,-71 43.5,-71 43.5,-106"/>
<text text-anchor="start" x="16.5" y="-86.4" font-family="arial" text-decoration="underline" font-size="12.00" fill="darkgreen">Pet</text>
</a>
</g>
</g>
<!-- Shot -->
<g id="node5" class="node">
<title>Shot</title>
<g id="a_node5"><a xlink:title="→ Pet
→ RequiredVaccine
------------------------------
shot_date            
">
<polygon fill="#00ff00" fill-opacity="0.188235" stroke="#00ff00" stroke-opacity="0.188235" points="91.5,-35 50.5,-35 50.5,0 91.5,0 91.5,-35"/>
<text text-anchor="middle" x="71" y="-14.4" font-family="arial" font-size="12.00" fill="darkgreen">Shot</text>
</a>
</g>
</g>
<!-- Pet&#45;&gt;Shot -->
<g id="edge1" class="edge">
<title>Pet-&gt;Shot</title>
<path fill="none" stroke="#000000" stroke-width="0.75" stroke-opacity="0.250980" d="M36.89,-70.8C43.97,-59.95 53.15,-45.87 60.21,-35.05"/>
</g>
<!-- Species -->
<g id="node2" class="node">
<title>Species</title>
<g id="a_node2"><a xlink:title="species              
">
<polygon fill="#000000" fill-opacity="0.125490" stroke="none" points="132,-177 80,-177 80,-142 132,-142 132,-177"/>
<text text-anchor="start" x="88" y="-158" font-family="arial" text-decoration="underline" font-size="10.00">Species</text>
</a>
</g>
</g>
<!-- Species&#45;&gt;Pet -->
<g id="edge2" class="edge">
<title>Species-&gt;Pet</title>
<path fill="none" stroke="#000000" stroke-width="0.75" stroke-opacity="0.250980" d="M86.63,-141.8C73.5,-130.47 56.28,-115.62 43.55,-104.64"/>
</g>
<!-- RequiredVaccine -->
<g id="node3" class="node">
<title>RequiredVaccine</title>
<g id="a_node3"><a xlink:title="→ Species
vaccine              
">
<polygon fill="#00ff00" fill-opacity="0.188235" stroke="#00ff00" stroke-opacity="0.188235" points="170,-106 62,-106 62,-71 170,-71 170,-106"/>
<text text-anchor="start" x="70" y="-86.4" font-family="arial" text-decoration="underline" font-size="12.00" fill="darkgreen">RequiredVaccine</text>
</a>
</g>
</g>
<!-- Species&#45;&gt;RequiredVaccine -->
<g id="edge3" class="edge">
<title>Species-&gt;RequiredVaccine</title>
<path fill="none" stroke="#000000" stroke-width="0.75" stroke-opacity="0.250980" d="M108.42,-141.8C109.99,-130.95 112.03,-116.87 113.6,-106.05"/>
</g>
<!-- RequiredVaccine&#45;&gt;Shot -->
<g id="edge4" class="edge">
<title>RequiredVaccine-&gt;Shot</title>
<path fill="none" stroke="#000000" stroke-width="0.75" stroke-opacity="0.250980" d="M105.11,-70.8C98.03,-59.95 88.85,-45.87 81.79,-35.05"/>
</g>
<!-- Owner -->
<g id="node4" class="node">
<title>Owner</title>
<g id="a_node4"><a xlink:title="cell_phone           
------------------------------
full_name            
">
<polygon fill="#00ff00" fill-opacity="0.188235" stroke="#00ff00" stroke-opacity="0.188235" points="52,-177 0,-177 0,-142 52,-142 52,-177"/>
<text text-anchor="start" x="8" y="-157.4" font-family="arial" text-decoration="underline" font-size="12.00" fill="darkgreen">Owner</text>
</a>
</g>
</g>
<!-- Owner&#45;&gt;Pet -->
<g id="edge5" class="edge">
<title>Owner-&gt;Pet</title>
<path fill="none" stroke="#000000" stroke-width="0.75" stroke-opacity="0.250980" d="M26,-141.8C26,-130.95 26,-116.87 26,-106.05"/>
</g>
</g>
</svg>