<svg xmlns="http://www.w3.org/2000/svg" xmlns:xlink="http://www.w3.org/1999/xlink" width="581pt" height="114pt" viewBox="0.00 0.00 580.50 114.00">
<g id="graph0" class="graph" transform="scale(1 1) rotate(0) translate(4 110)">
<polygon fill="white" stroke="none" points="-4,4 -4,-110 576.5,-110 576.5,4 -4,4"/>
<!-- Person -->
<g id="node1" class="node">
<title>Person</title>
<g id="a_node1"><a xlink:title="person_id            
------------------------------
date_of_birth        
full_name            
ssn                  
">
<polygon fill="#00ff00" fill-opacity="0.188235" stroke="#00ff00" stroke-opacity="0.188235" points="57.5,-106 2.5,-106 2.5,-71 57.5,-71 57.5,-106"/>
<text text-anchor="start" x="10.5" y="-86.4" font-family="arial" text-decoration="underline" font-size="12.00" fill="darkgreen">Person</text>
</a>
</g>
</g>
<!-- Account -->
<g id="node12" class="node">
<title>Account</title>
<g id="a_node12"><a xlink:title="account              
------------------------------
→ Person
">
<polygon fill="#00ff00" fill-opacity="0.188235" stroke="#00ff00" stroke-opacity="0.188235" points="60,-35 0,-35 0,0 60,0 60,-35"/>
<text text-anchor="start" x="8" y="-15.4" font-family="arial" text-decoration="underline" font-size="12.00" fill="darkgreen">Account</text>
</a>
</g>
</g>
<!-- Person&#45;&gt;Account -->
<g id="edge1" class="edge">
<title>Person-&gt;Account</title>
<path fill="none" stroke="#000000" stroke-width="0.75" stroke-dasharray="5,2" stroke-opacity="0.250980" d="M30,-70.8C30,-59.95 30,-45.87 30,-35.05"/>
</g>
<!-- AccountPerson4 -->
<g id="node2" class="node">
<title>AccountPerson4</title>
<g id="a_node2"><a xlink:title="→ Person4
→ Account4
">
<polygon fill="#00ff00" fill-opacity="0.188235" stroke="#00ff00" stroke-opacity="0.188235" points="207.5,-35 102.5,-35 102.5,0 207.5,0 207.5,-35"/>
<text text-anchor="middle" x="155" y="-14.4" font-family="arial" font-size="12.00" fill="darkgreen">AccountPerson4</text>
</a>
</g>
</g>
<!-- Person4 -->
<g id="node3" class="node">
<title>Person4</title>
<g id="a_node3"><a xlink:title="person_id            
------------------------------
date_of_birth        
full_name            
ssn                  
">
<polygon fill="#00ff00" fill-opacity="0.188235" stroke="#00ff00" stroke-opacity="0.188235" points="138,-106 76,-106 76,-71 138,-71 138,-106"/>
<text text-anchor="start" x="84" y="-86.4" font-family="arial" text-decoration="underline" font-size="12.00" fill="darkgreen">Person4</text>
</a>
</g>
</g>
<!-- Person4&#45;&gt;AccountPerson4 -->
<g id="edge2" class="edge">
<title>Person4-&gt;AccountPerson4</title>
<path fill="none" stroke="#000000" stroke-width="0.75" stroke-opacity="0.250980" d="M118.62,-70.8C126.17,-59.95 135.96,-45.87 143.49,-35.05"/>
</g>
<!-- Account2 -->
<g id="node4" class="node">
<title>Account2</title>
<g id="a_node4"><a xlink:title="→ Person2
------------------------------
balance              
">
<polygon fill="#00ff00" fill-opacity="0.188235" stroke="#00ff00" stroke-opacity="0.188235" points="316.5,-35 249.5,-35 249.5,0 316.5,0 316.5,-35"/>
<text text-anchor="middle" x="283" y="-14.4" font-family="arial" font-size="12.00" fill="darkgreen">Account2</text>
</a>
</g>
</g>
<!-- Person5 -->
<g id="node5" class="node">
<title>Person5</title>
<g id="a_node5"><a xlink:title="person_id            
------------------------------
date_of_birth        
full_name            
ssn                  
">
<polygon fill="#00ff00" fill-opacity="0.188235" stroke="#00ff00" stroke-opacity="0.188235" points="394,-106 332,-106 332,-71 394,-71 394,-106"/>
<text text-anchor="start" x="340" y="-86.4" font-family="arial" text-decoration="underline" font-size="12.00" fill="darkgreen">Person5</text>
</a>
</g>
</g>
<!-- AccountPerson5 -->
<g id="node7" class="node">
<title>AccountPerson5</title>
<g id="a_node7"><a xlink:title="→ Account5
------------------------------
→ Person5
">
<polygon fill="#00ff00" fill-opacity="0.188235" stroke="#00ff00" stroke-opacity="0.188235" points="463.5,-35 358.5,-35 358.5,0 463.5,0 463.5,-35"/>
<text text-anchor="middle" x="411" y="-14.4" font-family="arial" font-size="12.00" fill="darkgreen">AccountPerson5</text>
</a>
</g>
</g>
<!-- Person5&#45;&gt;AccountPerson5 -->
<g id="edge3" class="edge">
<title>Person5-&gt;AccountPerson5</title>
<path fill="none" stroke="#000000" stroke-width="0.75" stroke-dasharray="5,2" stroke-opacity="0.250980" d="M374.62,-70.8C382.17,-59.95 391.96,-45.87 399.49,-35.05"/>
</g>
<!-- Account4 -->
<g id="node6" class="node">
<title>Account4</title>
<g id="a_node6"><a xlink:title="account              
------------------------------
balance              
">
<polygon fill="#00ff00" fill-opacity="0.188235" stroke="#00ff00" stroke-opacity="0.188235" points="223.5,-106 156.5,-106 156.5,-71 223.5,-71 223.5,-106"/>
<text text-anchor="start" x="164.5" y="-86.4" font-family="arial" text-decoration="underline" font-size="12.00" fill="darkgreen">Account4</text>
</a>
</g>
</g>
<!-- Account4&#45;&gt;AccountPerson4 -->
<g id="edge4" class="edge">
<title>Account4-&gt;AccountPerson4</title>
<path fill="none" stroke="#000000" stroke-width="0.75" stroke-opacity="0.250980" d="M181.53,-70.8C176.02,-59.95 168.88,-45.87 163.39,-35.05"/>
</g>
<!-- Account3 -->
<g id="node8" class="node">
<title>Account3</title>
<g id="a_node8"><a xlink:title="account              
------------------------------
→ [unique] Person3
balance              
">
<polygon fill="#00ff00" fill-opacity="0.188235" stroke="#00ff00" stroke-opacity="0.188235" points="572.5,-35 505.5,-35 505.5,0 572.5,0 572.5,-35"/>
<text text-anchor="start" x="513.5" y="-15.4" font-family="arial" text-decoration="underline" font-size="12.00" fill="darkgreen">Account3</text>
</a>
</g>
</g>
<!-- Account5 -->
<g id="node9" class="node">
<title>Account5</title>
<g id="a_node9"><a xlink:title="account              
------------------------------
balance              
">
<polygon fill="#00ff00" fill-opacity="0.188235" stroke="#00ff00" stroke-opacity="0.188235" points="479.5,-106 412.5,-106 412.5,-71 479.5,-71 479.5,-106"/>
<text text-anchor="start" x="420.5" y="-86.4" font-family="arial" text-decoration="underline" font-size="12.00" fill="darkgreen">Account5</text>
</a>
</g>
</g>
<!-- Account5&#45;&gt;AccountPerson5 -->
<g id="edge5" class="edge">
<title>Account5-&gt;AccountPerson5</title>
<path fill="none" stroke="#000000" stroke-width="2" stroke-opacity="0.250980" d="M437.53,-70.8C432.02,-59.95 424.88,-45.87 419.39,-35.05"/>
</g>
<!-- Person3 -->
<g id="node10" class="node">
<title>Person3</title>
<g id="a_node10"><a xlink:title="person_id            
------------------------------
date_of_birth        
full_name            
ssn                  
">
<polygon fill="#00ff00" fill-opacity="0.188235" stroke="#00ff00" stroke-opacity="0.188235" points="570,-106 508,-106 508,-71 570,-71 570,-106"/>
<text text-anchor="start" x="516" y="-86.4" font-family="arial" text-decoration="underline" font-size="12.00" fill="darkgreen">Person3</text>
</a>
</g>
</g>
<!-- Person3&#45;&gt;Account3 -->
<g id="edge6" class="edge">
<title>Person3-&gt;Account3</title>
<path fill="none" stroke="#000000" stroke-width="0.75" stroke-dasharray="5,2" stroke-opacity="0.250980" d="M539,-70.8C539,-59.95 539,-45.87 539,-35.05"/>
</g>
<!-- Person2 -->
<g id="node11" class="node">
<title>Person2</title>
<g id="a_node11"><a xlink:title="person_id            
------------------------------
date_of_birth        
full_name            
ssn                  
">
<polygon fill="#00ff00" fill-opacity="0.188235" stroke="#00ff00" stroke-opacity="0.188235" points="314,-106 252,-106 252,-71 314,-71 314,-106"/>
<text text-anchor="start" x="260" y="-86.4" font-family="arial" text-decoration="underline" font-size="12.00" fill="darkgreen">Person2</text>
</a>
</g>
</g>
<!-- Person2&#45;&gt;Account2 -->
<g id="edge7" class="edge">
<title>Person2-&gt;Account2</title>
<path fill="none" stroke="#000000" stroke-width="2" stroke-opacity="0.250980" d="M283,-70.8C283,-59.95 283,-45.87 283,-35.05"/>
</g>
</g>
</svg>