<svg xmlns="http://www.w3.org/2000/svg" xmlns:xlink="http://www.w3.org/1999/xlink" width="246pt" height="256pt" viewBox="0.00 0.00 246.00 256.00">
<g id="graph0" class="graph" transform="scale(1 1) rotate(0) translate(4 252)">
<polygon fill="white" stroke="none" points="-4,4 -4,-252 242,-252 242,4 -4,4"/>
<!-- Cell -->
<g id="node1" class="node">
<title>Cell</title>
<g id="a_node1"><a xlink:title="→ Scan
cell_id              
------------------------------
cell_type            
">
<polygon fill="#00ff00" fill-opacity="0.188235" stroke="#00ff00" stroke-opacity="0.188235" points="49,-35 11,-35 11,0 49,0 49,-35"/>
<text text-anchor="start" x="19" y="-15.4" font-family="arial" text-decoration="underline" font-size="12.00" fill="darkgreen">Cell</text>
</a>
</g>
</g>
<!-- Confirm -->
<g id="node2" class="node">
<title>Confirm</title>
<g id="a_node2"><a xlink:title="→ Shipment
------------------------------
confirm_date         
">
<polygon fill="#00ff00" fill-opacity="0.188235" stroke="#00ff00" stroke-opacity="0.188235" points="141.5,-106 82.5,-106 82.5,-71 141.5,-71 141.5,-106"/>
<text text-anchor="middle" x="112" y="-85.4" font-family="arial" font-size="12.00" fill="darkgreen">Confirm</text>
</a>
</g>
</g>
<!-- Session -->
<g id="node3" class="node">
<title>Session</title>
<g id="a_node3"><a xlink:title="→ Subject
session              
------------------------------
session_timestamp=&quot;current_timestamp()&quot; 
">
<polygon fill="#00ff00" fill-opacity="0.188235" stroke="#00ff00" stroke-opacity="0.188235" points="60,-177 0,-177 0,-142 60,-142 60,-177"/>
<text text-anchor="start" x="8" y="-157.4" font-family="arial" text-decoration="underline" font-size="12.00" fill="darkgreen">Session</text>
</a>
</g>
</g>
<!-- Scan -->
<g id="node8" class="node">
<title>Scan</title>
<g id="a_node8"><a xlink:title="→ Session
scan_id              
------------------------------
laser_power          
">
<polygon fill="#00ff00" fill-opacity="0.188235" stroke="#00ff00" stroke-opacity="0.188235" points="52,-106 8,-106 8,-71 52,-71 52,-106"/>
<text text-anchor="start" x="16" y="-86.4" font-family="arial" text-decoration="underline" font-size="12.00" fill="darkgreen">Scan</text>
</a>
</g>
</g>
<!-- Session&#45;&gt;Scan -->
<g id="edge1" class="edge">
<title>Session-&gt;Scan</title>
<path fill="none" stroke="#000000" stroke-width="0.75" stroke-opacity="0.250980" d="M30,-141.8C30,-130.95 30,-116.87 30,-106.05"/>
</g>
<!-- Order2 -->
<g id="node4" class="node">
<title>Order2</title>
<g id="a_node4"><a xlink:title="order_number         
------------------------------
order_date           
">
<polygon fill="#00ff00" fill-opacity="0.188235" stroke="#00ff00" stroke-opacity="0.188235" points="227.5,-248 174.5,-248 174.5,-213 227.5,-213 227.5,-248"/>
<text text-anchor="start" x="182.5" y="-228.4" font-family="arial" text-decoration="underline" font-size="12.00" fill="darkgreen">Order2</text>
</a>
</g>
</g>
<!-- Shipment2 -->
<g id="node9" class="node">
<title>Shipment2</title>
<g id="a_node9"><a xlink:title="shipment_id          
------------------------------
→ [unique] Order2
ship_date            
">
<polygon fill="#00ff00" fill-opacity="0.188235" stroke="#00ff00" stroke-opacity="0.188235" points="238,-177 164,-177 164,-142 238,-142 238,-177"/>
<text text-anchor="start" x="172" y="-157.4" font-family="arial" text-decoration="underline" font-size="12.00" fill="darkgreen">Shipment2</text>
</a>
</g>
</g>
<!-- Order2&#45;&gt;Shipment2 -->
<g id="edge2" class="edge">
<title>Order2-&gt;Shipment2</title>
<path fill="none" stroke="#000000" stroke-width="0.75" stroke-dasharray="5,2" stroke-opacity="0.250980" d="M201,-212.8C201,-201.95 201,-187.87 201,-177.05"/>
</g>
<!-- Subject -->
<g id="node5" class="node">
<title>Subject</title>
<g id="a_node5"><a xlink:title="subject_id           
------------------------------
species=&quot;mouse&quot;      
sex                  
">
<polygon fill="#00ff00" fill-opacity="0.188235" stroke="#00ff00" stroke-opacity="0.188235" points="58.5,-248 1.5,-248 1.5,-213 58.5,-213 58.5,-248"/>
<text text-anchor="start" x="9.5" y="-228.4" font-family="arial" text-decoration="underline" font-size="12.00" fill="darkgreen">Subject</text>
</a>
</g>
</g>
<!-- Subject&#45;&gt;Session -->
<g id="edge3" class="edge">
<title>Subject-&gt;Session</title>
<path fill="none" stroke="#000000" stroke-width="0.75" stroke-opacity="0.250980" d="M30,-212.8C30,-201.95 30,-187.87 30,-177.05"/>
</g>
<!-- Shipment -->
<g id="node6" class="node">
<title>Shipment</title>
<g id="a_node6"><a xlink:title="→ Order
------------------------------
ship_date            
">
<polygon fill="#00ff00" fill-opacity="0.188235" stroke="#00ff00" stroke-opacity="0.188235" points="146,-177 78,-177 78,-142 146,-142 146,-177"/>
<text text-anchor="middle" x="112" y="-156.4" font-family="arial" font-size="12.00" fill="darkgreen">Shipment</text>
</a>
</g>
</g>
<!-- Shipment&#45;&gt;Confirm -->
<g id="edge4" class="edge">
<title>Shipment-&gt;Confirm</title>
<path fill="none" stroke="#000000" stroke-width="2" stroke-opacity="0.250980" d="M112,-141.8C112,-130.95 112,-116.87 112,-106.05"/>
</g>
<!-- Confirm2 -->
<g id="node7" class="node">
<title>Confirm2</title>
<g id="a_node7"><a xlink:title="confirm_id           
------------------------------
→ [unique] Shipment2
confirm_date         
">
<polygon fill="#00ff00" fill-opacity="0.188235" stroke="#00ff00" stroke-opacity="0.188235" points="233.5,-106 168.5,-106 168.5,-71 233.5,-71 233.5,-106"/>
<text text-anchor="start" x="176.5" y="-86.4" font-family="arial" text-decoration="underline" font-size="12.00" fill="darkgreen">Confirm2</text>
</a>
</g>
</g>
<!-- Scan&#45;&gt;Cell -->
<g id="edge5" class="edge">
<title>Scan-&gt;Cell</title>
<path fill="none" stroke="#000000" stroke-width="0.75" stroke-opacity="0.250980" d="M30,-70.8C30,-59.95 30,-45.87 30,-35.05"/>
</g>
<!-- Shipment2&#45;&gt;Confirm2 -->
<g id="edge6" class="edge">
<title>Shipment2-&gt;Confirm2</title>
<path fill="none" stroke="#000000" stroke-width="0.75" stroke-dasharray="5,2" stroke-opacity="0.250980" d="M201,-141.8C201,-130.95 201,-116.87 201,-106.05"/>
</g>
<!-- Order -->
<g id="node10" class="node">
<title>Order</title>
<g id="a_node10"><a xlink:title="order_number         
------------------------------
order_date           
">
<polygon fill="#00ff00" fill-opacity="0.188235" stroke="#00ff00" stroke-opacity="0.188235" points="135.5,-248 88.5,-248 88.5,-213 135.5,-213 135.5,-248"/>
<text text-anchor="start" x="96.5" y="-228.4" font-family="arial" text-decoration="underline" font-size="12.00" fill="darkgreen">Order</text>
</a>
</g>
</g>
<!-- Order&#45;&gt;Shipment -->
<g id="edge7" class="edge">
<title>Order-&gt;Shipment</title>
<path fill="none" stroke="#000000" stroke-width="2" stroke-opacity="0.250980" d="M112,-212.8C112,-201.95 112,-187.87 112,-177.05"/>
</g>
</g>
</svg>