<svg xmlns="http://www.w3.org/2000/svg" xmlns:xlink="http://www.w3.org/1999/xlink" width="163pt" height="114pt" viewBox="0.00 0.00 162.50 114.00">
<g id="graph0" class="graph" transform="scale(1 1) rotate(0) translate(4 110)">
<title>%3</title>
<polygon fill="white" stroke="transparent" points="-4,4 -4,-110 158.5,-110 158.5,4 -4,4"/>
<!-- Department -->
<g id="node1" class="node">
<title>Department</title>
<g id="a_node1"><a xlink:title="dept                 
------------------------------
dept_name            
dept_address         
dept_phone           
">
<polygon fill="#00ff00" fill-opacity="0.188235" stroke="#00ff00" stroke-opacity="0.188235" points="79,-106 0,-106 0,-71 79,-71 79,-106"/>
<text text-anchor="start" x="8" y="-86.4" font-family="arial" text-decoration="underline" font-size="12.00" fill="darkgreen">Department</text>
</a>
</g>
</g>
<!-- StudentMajor -->
<g id="node2" class="node">
<title>StudentMajor</title>
<g id="a_node2"><a xlink:title="→ Student
------------------------------
→ Department
declare_date         
">
<polygon fill="#00ff00" fill-opacity="0.188235" stroke="#00ff00" stroke-opacity="0.188235" points="126.5,-35 38.5,-35 38.5,0 126.5,0 126.5,-35"/>
<text text-anchor="middle" x="82.5" y="-14.4" font-family="arial" font-size="12.00" fill="darkgreen">StudentMajor</text>
</a>
</g>
</g>
<!-- Department&#45;&gt;StudentMajor -->
<g id="edge1" class="edge">
<title>Department-&gt;StudentMajor</title>
<path fill="none" stroke="#000000" stroke-width="0.75" stroke-dasharray="5,2" stroke-opacity="0.250980" d="M49.91,-70.8C56.67,-59.95 65.45,-45.87 72.19,-35.05"/>
</g>
<!-- Student -->
<g id="node3" class="node">
<title>Student</title>
<g id="a_node3"><a xlink:title="student_id           
------------------------------
first_name           
last_name            
sex                  
date_of_birth        
home_address         
home_city            
home_state           
home_zip             
home_phone           
">
<polygon fill="#00ff00" fill-opacity="0.188235" stroke="#00ff00" stroke-opacity="0.188235" points="154.5,-106 96.5,-106 96.5,-71 154.5,-71 154.5,-106"/>
<text text-anchor="start" x="104.5" y="-86.4" font-family="arial" text-decoration="underline" font-size="12.00" fill="darkgreen">Student</text>
</a>
</g>
</g>
<!-- Student&#45;&gt;StudentMajor -->
<g id="edge2" class="edge">
<title>Student-&gt;StudentMajor</title>
<path fill="none" stroke="#000000" stroke-width="2" stroke-opacity="0.250980" d="M115.09,-70.8C108.33,-59.95 99.55,-45.87 92.81,-35.05"/>
</g>
</g>
</svg>