<svg xmlns="http://www.w3.org/2000/svg" xmlns:xlink="http://www.w3.org/1999/xlink" width="823pt" height="256pt" viewBox="0.00 0.00 823.00 256.00">
<g id="graph0" class="graph" transform="scale(1 1) rotate(0) translate(4 252)">
<polygon fill="white" stroke="none" points="-4,4 -4,-252 819,-252 819,4 -4,4"/>
<!-- 4 -->
<g id="node1" class="node">
<title>4</title>
<ellipse fill="#ff8800" fill-opacity="0.501961" stroke="#ff8800" stroke-opacity="0.501961" cx="37" cy="-159.5" rx="2" ry="2"/>
<text text-anchor="middle" x="37" y="-159.2" font-family="arial" font-size="1.00" fill="#ff8800" fill-opacity="0.501961">4</text>
</g>
<!-- Friendship -->
<g id="node30" class="node">
<title>Friendship</title>
<g id="a_node30"><a xlink:title="→ Person.proj(friend1=&quot;person_id&quot;)
→ Person.proj(friend2=&quot;person_id&quot;)
">
<polygon fill="#00ff00" fill-opacity="0.188235" stroke="#00ff00" stroke-opacity="0.188235" points="74,-106 0,-106 0,-71 74,-71 74,-106"/>
<text text-anchor="middle" x="37" y="-85.4" font-family="arial" font-size="12.00" fill="darkgreen">Friendship</text>
</a>
</g>
</g>
<!-- 4&#45;&gt;Friendship -->
<g id="edge1" class="edge">
<title>4-&gt;Friendship</title>
<path fill="none" stroke="#000000" stroke-width="0.75" stroke-opacity="0.250980" d="M37,-157.3C37,-151.33 37,-124.29 37,-106.22"/>
</g>
<!-- 5 -->
<g id="node2" class="node">
<title>5</title>
<ellipse fill="#ff8800" fill-opacity="0.501961" stroke="#ff8800" stroke-opacity="0.501961" cx="72" cy="-159.5" rx="2" ry="2"/>
<text text-anchor="middle" x="72" y="-159.2" font-family="arial" font-size="1.00" fill="#ff8800" fill-opacity="0.501961">5</text>
</g>
<!-- 5&#45;&gt;Friendship -->
<g id="edge2" class="edge">
<title>5-&gt;Friendship</title>
<path fill="none" stroke="#000000" stroke-width="0.75" stroke-opacity="0.250980" d="M71.51,-157.52C68.71,-152.02 54.73,-124.45 45.44,-106.14"/>
</g>
<!-- 6 -->
<g id="node3" class="node">
<title>6</title>
<ellipse fill="#ff8800" fill-opacity="0.501961" stroke="#ff8800" stroke-opacity="0.501961" cx="284" cy="-159.5" rx="2" ry="2"/>
<text text-anchor="middle" x="284" y="-159.2" font-family="arial" font-size="1.00" fill="#ff8800" fill-opacity="0.501961">6</text>
</g>
<!-- Synapse -->
<g id="node9" class="node">
<title>Synapse</title>
<g id="a_node9"><a xlink:title="synapse_id           
------------------------------
→ Neuron.proj(pre=&quot;neuron&quot;)
→ Neuron.proj(post=&quot;neuron&quot;)
">
<polygon fill="#00ff00" fill-opacity="0.188235" stroke="#00ff00" stroke-opacity="0.188235" points="327,-106 263,-106 263,-71 327,-71 327,-106"/>
<text text-anchor="start" x="271" y="-86.4" font-family="arial" text-decoration="underline" font-size="12.00" fill="darkgreen">Synapse</text>
</a>
</g>
</g>
<!-- 6&#45;&gt;Synapse -->
<g id="edge3" class="edge">
<title>6-&gt;Synapse</title>
<path fill="none" stroke="#000000" stroke-width="0.75" stroke-dasharray="5,2" stroke-opacity="0.250980" d="M284.19,-157.3C285.14,-151.33 289.45,-124.29 292.33,-106.22"/>
</g>
<!-- 7 -->
<g id="node4" class="node">
<title>7</title>
<ellipse fill="#ff8800" fill-opacity="0.501961" stroke="#ff8800" stroke-opacity="0.501961" cx="319" cy="-159.5" rx="2" ry="2"/>
<text text-anchor="middle" x="319" y="-159.2" font-family="arial" font-size="1.00" fill="#ff8800" fill-opacity="0.501961">7</text>
</g>
<!-- 7&#45;&gt;Synapse -->
<g id="edge4" class="edge">
<title>7-&gt;Synapse</title>
<path fill="none" stroke="#000000" stroke-width="0.75" stroke-dasharray="5,2" stroke-opacity="0.250980" d="M318.66,-157.52C316.75,-152.02 307.15,-124.45 300.79,-106.14"/>
</g>
<!-- 8 -->
<g id="node5" class="node">
<title>8</title>
<ellipse fill="#ff8800" fill-opacity="0.501961" stroke="#ff8800" stroke-opacity="0.501961" cx="101" cy="-88.5" rx="2" ry="2"/>
<text text-anchor="middle" x="101" y="-88.2" font-family="arial" font-size="1.00" fill="#ff8800" fill-opacity="0.501961">8</text>
</g>
<!-- Subordinate -->
<g id="node6" class="node">
<title>Subordinate</title>
<g id="a_node6"><a xlink:title="→ Employee
------------------------------
→ Employee.proj(manager_id=&quot;person_id&quot;)
">
<polygon fill="#00ff00" fill-opacity="0.188235" stroke="#00ff00" stroke-opacity="0.188235" points="161,-35 79,-35 79,0 161,0 161,-35"/>
<text text-anchor="middle" x="120" y="-14.4" font-family="arial" font-size="12.00" fill="darkgreen">Subordinate</text>
</a>
</g>
</g>
<!-- 8&#45;&gt;Subordinate -->
<g id="edge5" class="edge">
<title>8-&gt;Subordinate</title>
<path fill="none" stroke="#000000" stroke-width="0.75" stroke-dasharray="5,2" stroke-opacity="0.250980" d="M101.33,-86.3C102.98,-80.33 110.42,-53.29 115.4,-35.22"/>
</g>
<!-- AuthorBook -->
<g id="node7" class="node">
<title>AuthorBook</title>
<g id="a_node7"><a xlink:title="→ Author
→ Book
------------------------------
order                
UNIQUE INDEX (isbn, order)
">
<polygon fill="#00ff00" fill-opacity="0.188235" stroke="#00ff00" stroke-opacity="0.188235" points="465,-177 385,-177 385,-142 465,-142 465,-177"/>
<text text-anchor="middle" x="425" y="-156.4" font-family="arial" font-size="12.00" fill="darkgreen">AuthorBook</text>
</a>
</g>
</g>
<!-- Scan -->
<g id="node8" class="node">
<title>Scan</title>
<g id="a_node8"><a xlink:title="→ Session
scan_id              
------------------------------
laser_power          
">
<polygon fill="#00ff00" fill-opacity="0.188235" stroke="#00ff00" stroke-opacity="0.188235" points="543,-106 499,-106 499,-71 543,-71 543,-106"/>
<text text-anchor="start" x="507" y="-86.4" font-family="arial" text-decoration="underline" font-size="12.00" fill="darkgreen">Scan</text>
</a>
</g>
</g>
<!-- Cell -->
<g id="node15" class="node">
<title>Cell</title>
<g id="a_node15"><a xlink:title="→ Scan
cell_id              
------------------------------
cell_type            
">
<polygon fill="#00ff00" fill-opacity="0.188235" stroke="#00ff00" stroke-opacity="0.188235" points="540,-35 502,-35 502,0 540,0 540,-35"/>
<text text-anchor="start" x="510" y="-15.4" font-family="arial" text-decoration="underline" font-size="12.00" fill="darkgreen">Cell</text>
</a>
</g>
</g>
<!-- Scan&#45;&gt;Cell -->
<g id="edge6" class="edge">
<title>Scan-&gt;Cell</title>
<path fill="none" stroke="#000000" stroke-width="0.75" stroke-opacity="0.250980" d="M521,-70.8C521,-59.95 521,-45.87 521,-35.05"/>
</g>
<!-- Cell2 -->
<g id="node10" class="node">
<title>Cell2</title>
<g id="a_node10"><a xlink:title="cell_id              
------------------------------
→ Scan2
cell_type            
">
<polygon fill="#00ff00" fill-opacity="0.188235" stroke="#00ff00" stroke-opacity="0.188235" points="625.5,-35 580.5,-35 580.5,0 625.5,0 625.5,-35"/>
<text text-anchor="start" x="588.5" y="-15.4" font-family="arial" text-decoration="underline" font-size="12.00" fill="darkgreen">Cell2</text>
</a>
</g>
</g>
<!-- Session -->
<g id="node11" class="node">
<title>Session</title>
<g id="a_node11"><a xlink:title="→ Subject
session              
------------------------------
session_timestamp=&quot;current_timestamp()&quot; 
">
<polygon fill="#00ff00" fill-opacity="0.188235" stroke="#00ff00" stroke-opacity="0.188235" points="551,-177 491,-177 491,-142 551,-142 551,-177"/>
<text text-anchor="start" x="499" y="-157.4" font-family="arial" text-decoration="underline" font-size="12.00" fill="darkgreen">Session</text>
</a>
</g>
</g>
<!-- Session&#45;&gt;Scan -->
<g id="edge7" class="edge">
<title>Session-&gt;Scan</title>
<path fill="none" stroke="#000000" stroke-width="0.75" stroke-opacity="0.250980" d="M521,-141.8C521,-130.95 521,-116.87 521,-106.05"/>
</g>
<!-- Confirm -->
<g id="node12" class="node">
<title>Confirm</title>
<g id="a_node12"><a xlink:title="→ Shipment
------------------------------
confirm_date         
">
<polygon fill="#00ff00" fill-opacity="0.188235" stroke="#00ff00" stroke-opacity="0.188235" points="718.5,-106 659.5,-106 659.5,-71 718.5,-71 718.5,-106"/>
<text text-anchor="middle" x="689" y="-85.4" font-family="arial" font-size="12.00" fill="darkgreen">Confirm</text>
</a>
</g>
</g>
<!-- Scan2 -->
<g id="node13" class="node">
<title>Scan2</title>
<g id="a_node13"><a xlink:title="scan_id              
------------------------------
→ Session2
laser_power          
">
<polygon fill="#00ff00" fill-opacity="0.188235" stroke="#00ff00" stroke-opacity="0.188235" points="628.5,-106 577.5,-106 577.5,-71 628.5,-71 628.5,-106"/>
<text text-anchor="start" x="585.5" y="-86.4" font-family="arial" text-decoration="underline" font-size="12.00" fill="darkgreen">Scan2</text>
</a>
</g>
</g>
<!-- Scan2&#45;&gt;Cell2 -->
<g id="edge8" class="edge">
<title>Scan2-&gt;Cell2</title>
<path fill="none" stroke="#000000" stroke-width="0.75" stroke-dasharray="5,2" stroke-opacity="0.250980" d="M603,-70.8C603,-59.95 603,-45.87 603,-35.05"/>
</g>
<!-- Subject -->
<g id="node14" class="node">
<title>Subject</title>
<g id="a_node14"><a xlink:title="subject_id           
------------------------------
species=&quot;mouse&quot;      
sex                  
">
<polygon fill="#00ff00" fill-opacity="0.188235" stroke="#00ff00" stroke-opacity="0.188235" points="549.5,-248 492.5,-248 492.5,-213 549.5,-213 549.5,-248"/>
<text text-anchor="start" x="500.5" y="-228.4" font-family="arial" text-decoration="underline" font-size="12.00" fill="darkgreen">Subject</text>
</a>
</g>
</g>
<!-- Subject&#45;&gt;Session -->
<g id="edge9" class="edge">
<title>Subject-&gt;Session</title>
<path fill="none" stroke="#000000" stroke-width="0.75" stroke-opacity="0.250980" d="M521,-212.8C521,-201.95 521,-187.87 521,-177.05"/>
</g>
<!-- Shipment2 -->
<g id="node16" class="node">
<title>Shipment2</title>
<g id="a_node16"><a xlink:title="shipment_id          
------------------------------
→ [unique] Order2
ship_date            
">
<polygon fill="#00ff00" fill-opacity="0.188235" stroke="#00ff00" stroke-opacity="0.188235" points="815,-177 741,-177 741,-142 815,-142 815,-177"/>
<text text-anchor="start" x="749" y="-157.4" font-family="arial" text-decoration="underline" font-size="12.00" fill="darkgreen">Shipment2</text>
</a>
</g>
</g>
<!-- Confirm2 -->
<g id="node18" class="node">
<title>Confirm2</title>
<g id="a_node18"><a xlink:title="confirm_id           
------------------------------
→ [unique] Shipment2
confirm_date         
">
<polygon fill="#00ff00" fill-opacity="0.188235" stroke="#00ff00" stroke-opacity="0.188235" points="810.5,-106 745.5,-106 745.5,-71 810.5,-71 810.5,-106"/>
<text text-anchor="start" x="753.5" y="-86.4" font-family="arial" text-decoration="underline" font-size="12.00" fill="darkgreen">Confirm2</text>
</a>
</g>
</g>
<!-- Shipment2&#45;&gt;Confirm2 -->
<g id="edge10" class="edge">
<title>Shipment2-&gt;Confirm2</title>
<path fill="none" stroke="#000000" stroke-width="0.75" stroke-dasharray="5,2" stroke-opacity="0.250980" d="M778,-141.8C778,-130.95 778,-116.87 778,-106.05"/>
</g>
<!-- Employee -->
<g id="node17" class="node">
<title>Employee</title>
<g id="a_node17"><a xlink:title="→ Person
------------------------------
hire_date            
">
<polygon fill="#00ff00" fill-opacity="0.188235" stroke="#00ff00" stroke-opacity="0.188235" points="169.5,-177 98.5,-177 98.5,-142 169.5,-142 169.5,-177"/>
<text text-anchor="middle" x="134" y="-156.4" font-family="arial" font-size="12.00" fill="darkgreen">Employee</text>
</a>
</g>
</g>
<!-- Employee&#45;&gt;8 -->
<g id="edge11" class="edge">
<title>Employee-&gt;8</title>
<path fill="none" stroke="#000000" stroke-width="0.75" stroke-dasharray="5,2" stroke-opacity="0.250980" d="M126.01,-141.8C117.47,-123.93 104.73,-97.29 101.67,-90.91"/>
</g>
<!-- Employee&#45;&gt;Subordinate -->
<g id="edge12" class="edge">
<title>Employee-&gt;Subordinate</title>
<path fill="none" stroke="#000000" stroke-width="2" stroke-opacity="0.250980" d="M132.34,-141.89C129.64,-114.95 124.35,-62.02 121.66,-35.09"/>
</g>
<!-- Instructor -->
<g id="node28" class="node">
<title>Instructor</title>
<g id="a_node28"><a xlink:title="→ Employee
------------------------------
department           
">
<polygon fill="#00ff00" fill-opacity="0.188235" stroke="#00ff00" stroke-opacity="0.188235" points="231.5,-106 166.5,-106 166.5,-71 231.5,-71 231.5,-106"/>
<text text-anchor="middle" x="199" y="-85.4" font-family="arial" font-size="12.00" fill="darkgreen">Instructor</text>
</a>
</g>
</g>
<!-- Employee&#45;&gt;Instructor -->
<g id="edge13" class="edge">
<title>Employee-&gt;Instructor</title>
<path fill="none" stroke="#000000" stroke-width="2" stroke-opacity="0.250980" d="M149.73,-141.8C159.95,-130.95 173.22,-116.87 183.41,-106.05"/>
</g>
<!-- Shipment -->
<g id="node19" class="node">
<title>Shipment</title>
<g id="a_node19"><a xlink:title="→ Order
------------------------------
ship_date            
">
<polygon fill="#00ff00" fill-opacity="0.188235" stroke="#00ff00" stroke-opacity="0.188235" points="723,-177 655,-177 655,-142 723,-142 723,-177"/>
<text text-anchor="middle" x="689" y="-156.4" font-family="arial" font-size="12.00" fill="darkgreen">Shipment</text>
</a>
</g>
</g>
<!-- Shipment&#45;&gt;Confirm -->
<g id="edge14" class="edge">
<title>Shipment-&gt;Confirm</title>
<path fill="none" stroke="#000000" stroke-width="2" stroke-opacity="0.250980" d="M689,-141.8C689,-130.95 689,-116.87 689,-106.05"/>
</g>
<!-- Session2 -->
<g id="node20" class="node">
<title>Session2</title>
<g id="a_node20"><a xlink:title="session              
------------------------------
→ Subject2
session_timestamp=&quot;current_timestamp()&quot; 
">
<polygon fill="#00ff00" fill-opacity="0.188235" stroke="#00ff00" stroke-opacity="0.188235" points="636.5,-177 569.5,-177 569.5,-142 636.5,-142 636.5,-177"/>
<text text-anchor="start" x="577.5" y="-157.4" font-family="arial" text-decoration="underline" font-size="12.00" fill="darkgreen">Session2</text>
</a>
</g>
</g>
<!-- Session2&#45;&gt;Scan2 -->
<g id="edge15" class="edge">
<title>Session2-&gt;Scan2</title>
<path fill="none" stroke="#000000" stroke-width="0.75" stroke-dasharray="5,2" stroke-opacity="0.250980" d="M603,-141.8C603,-130.95 603,-116.87 603,-106.05"/>
</g>
<!-- Person -->
<g id="node21" class="node">
<title>Person</title>
<g id="a_node21"><a xlink:title="person_id            
------------------------------
date_of_birth        
gender               
">
<polygon fill="#00ff00" fill-opacity="0.188235" stroke="#00ff00" stroke-opacity="0.188235" points="130.5,-248 75.5,-248 75.5,-213 130.5,-213 130.5,-248"/>
<text text-anchor="start" x="83.5" y="-228.4" font-family="arial" text-decoration="underline" font-size="12.00" fill="darkgreen">Person</text>
</a>
</g>
</g>
<!-- Person&#45;&gt;4 -->
<g id="edge16" class="edge">
<title>Person-&gt;4</title>
<path fill="none" stroke="#000000" stroke-width="0.75" stroke-opacity="0.250980" d="M87.02,-212.8C69.93,-194.93 44.45,-168.29 38.35,-161.91"/>
</g>
<!-- Person&#45;&gt;5 -->
<g id="edge17" class="edge">
<title>Person-&gt;5</title>
<path fill="none" stroke="#000000" stroke-width="0.75" stroke-opacity="0.250980" d="M95.5,-212.8C87.47,-194.93 75.5,-168.29 72.63,-161.91"/>
</g>
<!-- Person&#45;&gt;Employee -->
<g id="edge18" class="edge">
<title>Person-&gt;Employee</title>
<path fill="none" stroke="#000000" stroke-width="2" stroke-opacity="0.250980" d="M110.5,-212.8C115.38,-201.95 121.7,-187.87 126.56,-177.05"/>
</g>
<!-- Student -->
<g id="node29" class="node">
<title>Student</title>
<g id="a_node29"><a xlink:title="→ Person
------------------------------
admission_date       
">
<polygon fill="#00ff00" fill-opacity="0.188235" stroke="#00ff00" stroke-opacity="0.188235" points="246,-177 188,-177 188,-142 246,-142 246,-177"/>
<text text-anchor="middle" x="217" y="-156.4" font-family="arial" font-size="12.00" fill="darkgreen">Student</text>
</a>
</g>
</g>
<!-- Person&#45;&gt;Student -->
<g id="edge19" class="edge">
<title>Person-&gt;Student</title>
<path fill="none" stroke="#000000" stroke-width="2" stroke-opacity="0.250980" d="M130.31,-212.97C148.22,-202.13 171.57,-188 189.52,-177.13"/>
</g>
<!-- Order2 -->
<g id="node22" class="node">
<title>Order2</title>
<g id="a_node22"><a xlink:title="order_number         
------------------------------
order_date           
">
<polygon fill="#00ff00" fill-opacity="0.188235" stroke="#00ff00" stroke-opacity="0.188235" points="804.5,-248 751.5,-248 751.5,-213 804.5,-213 804.5,-248"/>
<text text-anchor="start" x="759.5" y="-228.4" font-family="arial" text-decoration="underline" font-size="12.00" fill="darkgreen">Order2</text>
</a>
</g>
</g>
<!-- Order2&#45;&gt;Shipment2 -->
<g id="edge20" class="edge">
<title>Order2-&gt;Shipment2</title>
<path fill="none" stroke="#000000" stroke-width="0.75" stroke-dasharray="5,2" stroke-opacity="0.250980" d="M778,-212.8C778,-201.95 778,-187.87 778,-177.05"/>
</g>
<!-- Order -->
<g id="node23" class="node">
<title>Order</title>
<g id="a_node23"><a xlink:title="order_number         
------------------------------
order_date           
">
<polygon fill="#00ff00" fill-opacity="0.188235" stroke="#00ff00" stroke-opacity="0.188235" points="712.5,-248 665.5,-248 665.5,-213 712.5,-213 712.5,-248"/>
<text text-anchor="start" x="673.5" y="-228.4" font-family="arial" text-decoration="underline" font-size="12.00" fill="darkgreen">Order</text>
</a>
</g>
</g>
<!-- Order&#45;&gt;Shipment -->
<g id="edge21" class="edge">
<title>Order-&gt;Shipment</title>
<path fill="none" stroke="#000000" stroke-width="2" stroke-opacity="0.250980" d="M689,-212.8C689,-201.95 689,-187.87 689,-177.05"/>
</g>
<!-- Author -->
<g id="node24" class="node">
<title>Author</title>
<g id="a_node24"><a xlink:title="author_id            
------------------------------
name                 
">
<polygon fill="#00ff00" fill-opacity="0.188235" stroke="#00ff00" stroke-opacity="0.188235" points="399,-248 347,-248 347,-213 399,-213 399,-248"/>
<text text-anchor="start" x="355" y="-228.4" font-family="arial" text-decoration="underline" font-size="12.00" fill="darkgreen">Author</text>
</a>
</g>
</g>
<!-- Author&#45;&gt;AuthorBook -->
<g id="edge22" class="edge">
<title>Author-&gt;AuthorBook</title>
<path fill="none" stroke="#000000" stroke-width="0.75" stroke-opacity="0.250980" d="M385.59,-212.8C393.76,-201.95 404.38,-187.87 412.53,-177.05"/>
</g>
<!-- Book -->
<g id="node25" class="node">
<title>Book</title>
<g id="a_node25"><a xlink:title="isbn                 
------------------------------
title                
">
<polygon fill="#00ff00" fill-opacity="0.188235" stroke="#00ff00" stroke-opacity="0.188235" points="461,-248 417,-248 417,-213 461,-213 461,-248"/>
<text text-anchor="start" x="425" y="-228.4" font-family="arial" text-decoration="underline" font-size="12.00" fill="darkgreen">Book</text>
</a>
</g>
</g>
<!-- Book&#45;&gt;AuthorBook -->
<g id="edge23" class="edge">
<title>Book-&gt;AuthorBook</title>
<path fill="none" stroke="#000000" stroke-width="0.75" stroke-opacity="0.250980" d="M435.61,-212.8C433.41,-201.95 430.55,-187.87 428.36,-177.05"/>
</g>
<!-- Neuron -->
<g id="node26" class="node">
<title>Neuron</title>
<g id="a_node26"><a xlink:title="neuron               
">
<polygon fill="#00ff00" fill-opacity="0.188235" stroke="#00ff00" stroke-opacity="0.188235" points="329,-248 273,-248 273,-213 329,-213 329,-248"/>
<text text-anchor="start" x="281" y="-228.4" font-family="arial" text-decoration="underline" font-size="12.00" fill="darkgreen">Neuron</text>
</a>
</g>
</g>
<!-- Neuron&#45;&gt;6 -->
<g id="edge24" class="edge">
<title>Neuron-&gt;6</title>
<path fill="none" stroke="#000000" stroke-width="0.75" stroke-dasharray="5,2" stroke-opacity="0.250980" d="M296.88,-212.8C292.48,-194.93 285.92,-168.29 284.35,-161.91"/>
</g>
<!-- Neuron&#45;&gt;7 -->
<g id="edge25" class="edge">
<title>Neuron-&gt;7</title>
<path fill="none" stroke="#000000" stroke-width="0.75" stroke-dasharray="5,2" stroke-opacity="0.250980" d="M305.36,-212.8C310.02,-194.93 316.97,-168.29 318.63,-161.91"/>
</g>
<!-- Subject2 -->
<g id="node27" class="node">
<title>Subject2</title>
<g id="a_node27"><a xlink:title="subject_id           
------------------------------
species=&quot;mouse&quot;      
sex                  
">
<polygon fill="#00ff00" fill-opacity="0.188235" stroke="#00ff00" stroke-opacity="0.188235" points="635,-248 571,-248 571,-213 635,-213 635,-248"/>
<text text-anchor="start" x="579" y="-228.4" font-family="arial" text-decoration="underline" font-size="12.00" fill="darkgreen">Subject2</text>
</a>
</g>
</g>
<!-- Subject2&#45;&gt;Session2 -->
<g id="edge26" class="edge">
<title>Subject2-&gt;Session2</title>
<path fill="none" stroke="#000000" stroke-width="0.75" stroke-dasharray="5,2" stroke-opacity="0.250980" d="M603,-212.8C603,-201.95 603,-187.87 603,-177.05"/>
</g>
</g>
</svg>