<svg xmlns="http://www.w3.org/2000/svg" xmlns:xlink="http://www.w3.org/1999/xlink" width="620pt" height="256pt" viewBox="0.00 0.00 620.00 256.00">
<g id="graph0" class="graph" transform="scale(1 1) rotate(0) translate(4 252)">
<polygon fill="white" stroke="none" points="-4,4 -4,-252 616,-252 616,4 -4,4"/>
<!-- Subject -->
<g id="node1" class="node">
<title>Subject</title>
<g id="a_node1"><a xlink:title="subject_id           
------------------------------
species=&quot;mouse&quot;      
sex                  
">
<polygon fill="#00ff00" fill-opacity="0.188235" stroke="#00ff00" stroke-opacity="0.188235" points="58.5,-248 1.5,-248 1.5,-213 58.5,-213 58.5,-248"/>
<text text-anchor="start" x="9.5" y="-228.4" font-family="arial" text-decoration="underline" font-size="12.00" fill="darkgreen">Subject</text>
</a>
</g>
</g>
<!-- Session -->
<g id="node6" class="node">
<title>Session</title>
<g id="a_node6"><a xlink:title="→ Subject
session              
------------------------------
session_timestamp=&quot;current_timestamp()&quot; 
">
<polygon fill="#00ff00" fill-opacity="0.188235" stroke="#00ff00" stroke-opacity="0.188235" points="60,-177 0,-177 0,-142 60,-142 60,-177"/>
<text text-anchor="start" x="8" y="-157.4" font-family="arial" text-decoration="underline" font-size="12.00" fill="darkgreen">Session</text>
</a>
</g>
</g>
<!-- Subject&#45;&gt;Session -->
<g id="edge1" class="edge">
<title>Subject-&gt;Session</title>
<path fill="none" stroke="#000000" stroke-width="0.75" stroke-opacity="0.250980" d="M30,-212.8C30,-201.95 30,-187.87 30,-177.05"/>
</g>
<!-- Session2 -->
<g id="node2" class="node">
<title>Session2</title>
<g id="a_node2"><a xlink:title="session              
------------------------------
→ Subject2
session_timestamp=&quot;current_timestamp()&quot; 
">
<polygon fill="#00ff00" fill-opacity="0.188235" stroke="#00ff00" stroke-opacity="0.188235" points="145.5,-177 78.5,-177 78.5,-142 145.5,-142 145.5,-177"/>
<text text-anchor="start" x="86.5" y="-157.4" font-family="arial" text-decoration="underline" font-size="12.00" fill="darkgreen">Session2</text>
</a>
</g>
</g>
<!-- Scan2 -->
<g id="node11" class="node">
<title>Scan2</title>
<g id="a_node11"><a xlink:title="scan_id              
------------------------------
→ Session2
laser_power          
">
<polygon fill="#00ff00" fill-opacity="0.188235" stroke="#00ff00" stroke-opacity="0.188235" points="137.5,-106 86.5,-106 86.5,-71 137.5,-71 137.5,-106"/>
<text text-anchor="start" x="94.5" y="-86.4" font-family="arial" text-decoration="underline" font-size="12.00" fill="darkgreen">Scan2</text>
</a>
</g>
</g>
<!-- Session2&#45;&gt;Scan2 -->
<g id="edge2" class="edge">
<title>Session2-&gt;Scan2</title>
<path fill="none" stroke="#000000" stroke-width="0.75" stroke-dasharray="5,2" stroke-opacity="0.250980" d="M112,-141.8C112,-130.95 112,-116.87 112,-106.05"/>
</g>
<!-- Shipment -->
<g id="node3" class="node">
<title>Shipment</title>
<g id="a_node3"><a xlink:title="→ Order
------------------------------
ship_date            
">
<polygon fill="#00ff00" fill-opacity="0.188235" stroke="#00ff00" stroke-opacity="0.188235" points="232,-177 164,-177 164,-142 232,-142 232,-177"/>
<text text-anchor="middle" x="198" y="-156.4" font-family="arial" font-size="12.00" fill="darkgreen">Shipment</text>
</a>
</g>
</g>
<!-- Confirm -->
<g id="node5" class="node">
<title>Confirm</title>
<g id="a_node5"><a xlink:title="→ Shipment
------------------------------
confirm_date         
">
<polygon fill="#00ff00" fill-opacity="0.188235" stroke="#00ff00" stroke-opacity="0.188235" points="227.5,-106 168.5,-106 168.5,-71 227.5,-71 227.5,-106"/>
<text text-anchor="middle" x="198" y="-85.4" font-family="arial" font-size="12.00" fill="darkgreen">Confirm</text>
</a>
</g>
</g>
<!-- Shipment&#45;&gt;Confirm -->
<g id="edge3" class="edge">
<title>Shipment-&gt;Confirm</title>
<path fill="none" stroke="#000000" stroke-width="2" stroke-opacity="0.250980" d="M198,-141.8C198,-130.95 198,-116.87 198,-106.05"/>
</g>
<!-- Person -->
<g id="node4" class="node">
<title>Person</title>
<g id="a_node4"><a xlink:title="person_id            
------------------------------
date_of_birth        
gender               
">
<polygon fill="#00ff00" fill-opacity="0.188235" stroke="#00ff00" stroke-opacity="0.188235" points="354.5,-248 299.5,-248 299.5,-213 354.5,-213 354.5,-248"/>
<text text-anchor="start" x="307.5" y="-228.4" font-family="arial" text-decoration="underline" font-size="12.00" fill="darkgreen">Person</text>
</a>
</g>
</g>
<!-- Employee -->
<g id="node12" class="node">
<title>Employee</title>
<g id="a_node12"><a xlink:title="→ Person
------------------------------
hire_date            
">
<polygon fill="#00ff00" fill-opacity="0.188235" stroke="#00ff00" stroke-opacity="0.188235" points="321.5,-177 250.5,-177 250.5,-142 321.5,-142 321.5,-177"/>
<text text-anchor="middle" x="286" y="-156.4" font-family="arial" font-size="12.00" fill="darkgreen">Employee</text>
</a>
</g>
</g>
<!-- Person&#45;&gt;Employee -->
<g id="edge4" class="edge">
<title>Person-&gt;Employee</title>
<path fill="none" stroke="#000000" stroke-width="2" stroke-opacity="0.250980" d="M317.08,-212.8C310.63,-201.95 302.26,-187.87 295.83,-177.05"/>
</g>
<!-- Student -->
<g id="node18" class="node">
<title>Student</title>
<g id="a_node18"><a xlink:title="→ Person
------------------------------
admission_date       
">
<polygon fill="#00ff00" fill-opacity="0.188235" stroke="#00ff00" stroke-opacity="0.188235" points="398,-177 340,-177 340,-142 398,-142 398,-177"/>
<text text-anchor="middle" x="369" y="-156.4" font-family="arial" font-size="12.00" fill="darkgreen">Student</text>
</a>
</g>
</g>
<!-- Person&#45;&gt;Student -->
<g id="edge5" class="edge">
<title>Person-&gt;Student</title>
<path fill="none" stroke="#000000" stroke-width="2" stroke-opacity="0.250980" d="M337.17,-212.8C343.77,-201.95 352.34,-187.87 358.93,-177.05"/>
</g>
<!-- Scan -->
<g id="node21" class="node">
<title>Scan</title>
<g id="a_node21"><a xlink:title="→ Session
scan_id              
------------------------------
laser_power          
">
<polygon fill="#00ff00" fill-opacity="0.188235" stroke="#00ff00" stroke-opacity="0.188235" points="52,-106 8,-106 8,-71 52,-71 52,-106"/>
<text text-anchor="start" x="16" y="-86.4" font-family="arial" text-decoration="underline" font-size="12.00" fill="darkgreen">Scan</text>
</a>
</g>
</g>
<!-- Session&#45;&gt;Scan -->
<g id="edge6" class="edge">
<title>Session-&gt;Scan</title>
<path fill="none" stroke="#000000" stroke-width="0.75" stroke-opacity="0.250980" d="M30,-141.8C30,-130.95 30,-116.87 30,-106.05"/>
</g>
<!-- Cell2 -->
<g id="node7" class="node">
<title>Cell2</title>
<g id="a_node7"><a xlink:title="cell_id              
------------------------------
→ Scan2
cell_type            
">
<polygon fill="#00ff00" fill-opacity="0.188235" stroke="#00ff00" stroke-opacity="0.188235" points="134.5,-35 89.5,-35 89.5,0 134.5,0 134.5,-35"/>
<text text-anchor="start" x="97.5" y="-15.4" font-family="arial" text-decoration="underline" font-size="12.00" fill="darkgreen">Cell2</text>
</a>
</g>
</g>
<!-- Order2 -->
<g id="node8" class="node">
<title>Order2</title>
<g id="a_node8"><a xlink:title="order_number         
------------------------------
order_date           
">
<polygon fill="#00ff00" fill-opacity="0.188235" stroke="#00ff00" stroke-opacity="0.188235" points="479.5,-248 426.5,-248 426.5,-213 479.5,-213 479.5,-248"/>
<text text-anchor="start" x="434.5" y="-228.4" font-family="arial" text-decoration="underline" font-size="12.00" fill="darkgreen">Order2</text>
</a>
</g>
</g>
<!-- Shipment2 -->
<g id="node16" class="node">
<title>Shipment2</title>
<g id="a_node16"><a xlink:title="shipment_id          
------------------------------
→ [unique] Order2
ship_date            
">
<polygon fill="#00ff00" fill-opacity="0.188235" stroke="#00ff00" stroke-opacity="0.188235" points="490,-177 416,-177 416,-142 490,-142 490,-177"/>
<text text-anchor="start" x="424" y="-157.4" font-family="arial" text-decoration="underline" font-size="12.00" fill="darkgreen">Shipment2</text>
</a>
</g>
</g>
<!-- Order2&#45;&gt;Shipment2 -->
<g id="edge7" class="edge">
<title>Order2-&gt;Shipment2</title>
<path fill="none" stroke="#000000" stroke-width="0.75" stroke-dasharray="5,2" stroke-opacity="0.250980" d="M453,-212.8C453,-201.95 453,-187.87 453,-177.05"/>
</g>
<!-- Book -->
<g id="node9" class="node">
<title>Book</title>
<g id="a_node9"><a xlink:title="isbn                 
------------------------------
title                
">
<polygon fill="#00ff00" fill-opacity="0.188235" stroke="#00ff00" stroke-opacity="0.188235" points="542,-248 498,-248 498,-213 542,-213 542,-248"/>
<text text-anchor="start" x="506" y="-228.4" font-family="arial" text-decoration="underline" font-size="12.00" fill="darkgreen">Book</text>
</a>
</g>
</g>
<!-- AuthorBook -->
<g id="node20" class="node">
<title>AuthorBook</title>
<g id="a_node20"><a xlink:title="→ Author
→ Book
------------------------------
order                
UNIQUE INDEX (isbn, order)
">
<polygon fill="#00ff00" fill-opacity="0.188235" stroke="#00ff00" stroke-opacity="0.188235" points="607,-177 527,-177 527,-142 607,-142 607,-177"/>
<text text-anchor="middle" x="567" y="-156.4" font-family="arial" font-size="12.00" fill="darkgreen">AuthorBook</text>
</a>
</g>
</g>
<!-- Book&#45;&gt;AuthorBook -->
<g id="edge8" class="edge">
<title>Book-&gt;AuthorBook</title>
<path fill="none" stroke="#000000" stroke-width="0.75" stroke-opacity="0.250980" d="M531.38,-212.8C538.77,-201.95 548.36,-187.87 555.73,-177.05"/>
</g>
<!-- Author -->
<g id="node10" class="node">
<title>Author</title>
<g id="a_node10"><a xlink:title="author_id            
------------------------------
name                 
">
<polygon fill="#00ff00" fill-opacity="0.188235" stroke="#00ff00" stroke-opacity="0.188235" points="612,-248 560,-248 560,-213 612,-213 612,-248"/>
<text text-anchor="start" x="568" y="-228.4" font-family="arial" text-decoration="underline" font-size="12.00" fill="darkgreen">Author</text>
</a>
</g>
</g>
<!-- Author&#45;&gt;AuthorBook -->
<g id="edge9" class="edge">
<title>Author-&gt;AuthorBook</title>
<path fill="none" stroke="#000000" stroke-width="0.75" stroke-opacity="0.250980" d="M581.4,-212.8C578.41,-201.95 574.54,-187.87 571.56,-177.05"/>
</g>
<!-- Scan2&#45;&gt;Cell2 -->
<g id="edge10" class="edge">
<title>Scan2-&gt;Cell2</title>
<path fill="none" stroke="#000000" stroke-width="0.75" stroke-dasharray="5,2" stroke-opacity="0.250980" d="M112,-70.8C112,-59.95 112,-45.87 112,-35.05"/>
</g>
<!-- Instructor -->
<g id="node14" class="node">
<title>Instructor</title>
<g id="a_node14"><a xlink:title="→ Employee
------------------------------
department           
">
<polygon fill="#00ff00" fill-opacity="0.188235" stroke="#00ff00" stroke-opacity="0.188235" points="318.5,-106 253.5,-106 253.5,-71 318.5,-71 318.5,-106"/>
<text text-anchor="middle" x="286" y="-85.4" font-family="arial" font-size="12.00" fill="darkgreen">Instructor</text>
</a>
</g>
</g>
<!-- Employee&#45;&gt;Instructor -->
<g id="edge11" class="edge">
<title>Employee-&gt;Instructor</title>
<path fill="none" stroke="#000000" stroke-width="2" stroke-opacity="0.250980" d="M286,-141.8C286,-130.95 286,-116.87 286,-106.05"/>
</g>
<!-- Cell -->
<g id="node13" class="node">
<title>Cell</title>
<g id="a_node13"><a xlink:title="→ Scan
cell_id              
------------------------------
cell_type            
">
<polygon fill="#00ff00" fill-opacity="0.188235" stroke="#00ff00" stroke-opacity="0.188235" points="49,-35 11,-35 11,0 49,0 49,-35"/>
<text text-anchor="start" x="19" y="-15.4" font-family="arial" text-decoration="underline" font-size="12.00" fill="darkgreen">Cell</text>
</a>
</g>
</g>
<!-- Confirm2 -->
<g id="node15" class="node">
<title>Confirm2</title>
<g id="a_node15"><a xlink:title="confirm_id           
------------------------------
→ [unique] Shipment2
confirm_date         
">
<polygon fill="#00ff00" fill-opacity="0.188235" stroke="#00ff00" stroke-opacity="0.188235" points="485.5,-106 420.5,-106 420.5,-71 485.5,-71 485.5,-106"/>
<text text-anchor="start" x="428.5" y="-86.4" font-family="arial" text-decoration="underline" font-size="12.00" fill="darkgreen">Confirm2</text>
</a>
</g>
</g>
<!-- Shipment2&#45;&gt;Confirm2 -->
<g id="edge12" class="edge">
<title>Shipment2-&gt;Confirm2</title>
<path fill="none" stroke="#000000" stroke-width="0.75" stroke-dasharray="5,2" stroke-opacity="0.250980" d="M453,-141.8C453,-130.95 453,-116.87 453,-106.05"/>
</g>
<!-- Order -->
<g id="node17" class="node">
<title>Order</title>
<g id="a_node17"><a xlink:title="order_number         
------------------------------
order_date           
">
<polygon fill="#00ff00" fill-opacity="0.188235" stroke="#00ff00" stroke-opacity="0.188235" points="221.5,-248 174.5,-248 174.5,-213 221.5,-213 221.5,-248"/>
<text text-anchor="start" x="182.5" y="-228.4" font-family="arial" text-decoration="underline" font-size="12.00" fill="darkgreen">Order</text>
</a>
</g>
</g>
<!-- Order&#45;&gt;Shipment -->
<g id="edge13" class="edge">
<title>Order-&gt;Shipment</title>
<path fill="none" stroke="#000000" stroke-width="2" stroke-opacity="0.250980" d="M198,-212.8C198,-201.95 198,-187.87 198,-177.05"/>
</g>
<!-- Subject2 -->
<g id="node19" class="node">
<title>Subject2</title>
<g id="a_node19"><a xlink:title="subject_id           
------------------------------
species=&quot;mouse&quot;      
sex                  
">
<polygon fill="#00ff00" fill-opacity="0.188235" stroke="#00ff00" stroke-opacity="0.188235" points="144,-248 80,-248 80,-213 144,-213 144,-248"/>
<text text-anchor="start" x="88" y="-228.4" font-family="arial" text-decoration="underline" font-size="12.00" fill="darkgreen">Subject2</text>
</a>
</g>
</g>
<!-- Subject2&#45;&gt;Session2 -->
<g id="edge14" class="edge">
<title>Subject2-&gt;Session2</title>
<path fill="none" stroke="#000000" stroke-width="0.75" stroke-dasharray="5,2" stroke-opacity="0.250980" d="M112,-212.8C112,-201.95 112,-187.87 112,-177.05"/>
</g>
<!-- Scan&#45;&gt;Cell -->
<g id="edge15" class="edge">
<title>Scan-&gt;Cell</title>
<path fill="none" stroke="#000000" stroke-width="0.75" stroke-opacity="0.250980" d="M30,-70.8C30,-59.95 30,-45.87 30,-35.05"/>
</g>
</g>
</svg>