<svg xmlns="http://www.w3.org/2000/svg" xmlns:xlink="http://www.w3.org/1999/xlink" width="174pt" height="185pt" viewBox="0.00 0.00 173.50 185.00">
<g id="graph0" class="graph" transform="scale(1 1) rotate(0) translate(4 181)">
<title>%3</title>
<polygon fill="white" stroke="transparent" points="-4,4 -4,-181 169.5,-181 169.5,4 -4,4"/>
<!-- CreditCard -->
<g id="node1" class="node">
<title>CreditCard</title>
<g id="a_node1"><a xlink:title="card_number          
------------------------------
exp_date             
cvc                  
zipcode              
→ Account
">
<polygon fill="#00ff00" fill-opacity="0.188235" stroke="#00ff00" stroke-opacity="0.188235" points="140,-106 65,-106 65,-71 140,-71 140,-106"/>
<text text-anchor="start" x="73" y="-86.4" font-family="arial" text-decoration="underline" font-size="12.00" fill="darkgreen">CreditCard</text>
</a>
</g>
</g>
<!-- Purchase -->
<g id="node4" class="node">
<title>Purchase</title>
<g id="a_node4"><a xlink:title="→ Account
→ AddOn
------------------------------
→ CreditCard
">
<polygon fill="#00ff00" fill-opacity="0.188235" stroke="#00ff00" stroke-opacity="0.188235" points="136.5,-35 68.5,-35 68.5,0 136.5,0 136.5,-35"/>
<text text-anchor="middle" x="102.5" y="-14.4" font-family="arial" font-size="12.00" fill="darkgreen">Purchase</text>
</a>
</g>
</g>
<!-- CreditCard&#45;&gt;Purchase -->
<g id="edge1" class="edge">
<title>CreditCard-&gt;Purchase</title>
<path fill="none" stroke="#000000" stroke-width="0.75" stroke-dasharray="5,2" stroke-opacity="0.250980" d="M102.5,-70.8C102.5,-59.95 102.5,-45.87 102.5,-35.05"/>
</g>
<!-- AddOn -->
<g id="node2" class="node">
<title>AddOn</title>
<g id="a_node2"><a xlink:title="addon_id             
------------------------------
addon_name           
price                
">
<polygon fill="#000000" fill-opacity="0.125490" stroke="transparent" points="47,-106 0,-106 0,-71 47,-71 47,-106"/>
<text text-anchor="start" x="8" y="-87" font-family="arial" text-decoration="underline" font-size="10.00">AddOn</text>
</a>
</g>
</g>
<!-- AddOn&#45;&gt;Purchase -->
<g id="edge2" class="edge">
<title>AddOn-&gt;Purchase</title>
<path fill="none" stroke="#000000" stroke-width="0.75" stroke-opacity="0.250980" d="M42.62,-70.8C55.04,-59.95 71.17,-45.87 83.55,-35.05"/>
</g>
<!-- Account -->
<g id="node3" class="node">
<title>Account</title>
<g id="a_node3"><a xlink:title="phone                
------------------------------
first_name           
last_name            
dob                  
">
<polygon fill="#00ff00" fill-opacity="0.188235" stroke="#00ff00" stroke-opacity="0.188235" points="165.5,-177 105.5,-177 105.5,-142 165.5,-142 165.5,-177"/>
<text text-anchor="start" x="113.5" y="-157.4" font-family="arial" text-decoration="underline" font-size="12.00" fill="darkgreen">Account</text>
</a>
</g>
</g>
<!-- Account&#45;&gt;CreditCard -->
<g id="edge3" class="edge">
<title>Account-&gt;CreditCard</title>
<path fill="none" stroke="#000000" stroke-width="0.75" stroke-dasharray="5,2" stroke-opacity="0.250980" d="M127.51,-141.8C122.32,-130.95 115.59,-116.87 110.41,-106.05"/>
</g>
<!-- Account&#45;&gt;Purchase -->
<g id="edge4" class="edge">
<title>Account-&gt;Purchase</title>
<path fill="none" stroke="#000000" stroke-width="0.75" stroke-opacity="0.250980" d="M143.11,-141.85C150.23,-123.85 158.51,-94.57 149.5,-71 144.17,-57.06 133.25,-44.48 123.27,-35.14"/>
</g>
</g>
</svg>