<svg xmlns="http://www.w3.org/2000/svg" xmlns:xlink="http://www.w3.org/1999/xlink" width="154pt" height="114pt" viewBox="0.00 0.00 153.50 114.00">
<g id="graph0" class="graph" transform="scale(1 1) rotate(0) translate(4 110)">
<polygon fill="white" stroke="none" points="-4,4 -4,-110 149.5,-110 149.5,4 -4,4"/>
<!-- Person2 -->
<g id="node1" class="node">
<title>Person2</title>
<g id="a_node1"><a xlink:title="person_id            
------------------------------
date_of_birth        
full_name            
ssn                  
">
<polygon fill="#00ff00" fill-opacity="0.188235" stroke="#00ff00" stroke-opacity="0.188235" points="64.5,-106 2.5,-106 2.5,-71 64.5,-71 64.5,-106"/>
<text text-anchor="start" x="10.5" y="-86.4" font-family="arial" text-decoration="underline" font-size="12.00" fill="darkgreen">Person2</text>
</a>
</g>
</g>
<!-- Account2 -->
<g id="node3" class="node">
<title>Account2</title>
<g id="a_node3"><a xlink:title="→ Person2
------------------------------
balance              
">
<polygon fill="#00ff00" fill-opacity="0.188235" stroke="#00ff00" stroke-opacity="0.188235" points="67,-35 0,-35 0,0 67,0 67,-35"/>
<text text-anchor="middle" x="33.5" y="-14.4" font-family="arial" font-size="12.00" fill="darkgreen">Account2</text>
</a>
</g>
</g>
<!-- Person2&#45;&gt;Account2 -->
<g id="edge1" class="edge">
<title>Person2-&gt;Account2</title>
<path fill="none" stroke="#000000" stroke-width="2" stroke-opacity="0.250980" d="M33.5,-70.8C33.5,-59.95 33.5,-45.87 33.5,-35.05"/>
</g>
<!-- Person -->
<g id="node2" class="node">
<title>Person</title>
<g id="a_node2"><a xlink:title="person_id            
------------------------------
date_of_birth        
full_name            
ssn                  
">
<polygon fill="#00ff00" fill-opacity="0.188235" stroke="#00ff00" stroke-opacity="0.188235" points="143,-106 88,-106 88,-71 143,-71 143,-106"/>
<text text-anchor="start" x="96" y="-86.4" font-family="arial" text-decoration="underline" font-size="12.00" fill="darkgreen">Person</text>
</a>
</g>
</g>
<!-- Account -->
<g id="node4" class="node">
<title>Account</title>
<g id="a_node4"><a xlink:title="account              
------------------------------
→ Person
">
<polygon fill="#00ff00" fill-opacity="0.188235" stroke="#00ff00" stroke-opacity="0.188235" points="145.5,-35 85.5,-35 85.5,0 145.5,0 145.5,-35"/>
<text text-anchor="start" x="93.5" y="-15.4" font-family="arial" text-decoration="underline" font-size="12.00" fill="darkgreen">Account</text>
</a>
</g>
</g>
<!-- Person&#45;&gt;Account -->
<g id="edge2" class="edge">
<title>Person-&gt;Account</title>
<path fill="none" stroke="#000000" stroke-width="0.75" stroke-dasharray="5,2" stroke-opacity="0.250980" d="M115.5,-70.8C115.5,-59.95 115.5,-45.87 115.5,-35.05"/>
</g>
</g>
</svg>