<svg xmlns="http://www.w3.org/2000/svg" xmlns:xlink="http://www.w3.org/1999/xlink" width="294pt" height="114pt" viewBox="0.00 0.00 293.50 114.00">
<g id="graph0" class="graph" transform="scale(1 1) rotate(0) translate(4 110)">
<title>%3</title>
<polygon fill="white" stroke="transparent" points="-4,4 -4,-110 289.5,-110 289.5,4 -4,4"/>
<!-- Department -->
<g id="node1" class="node">
<title>Department</title>
<g id="a_node1"><a xlink:title="dept_code            
------------------------------
dept_name            
">
<polygon fill="#000000" fill-opacity="0.125490" stroke="transparent" points="68,-106 0,-106 0,-71 68,-71 68,-106"/>
<text text-anchor="start" x="8" y="-87" font-family="arial" text-decoration="underline" font-size="10.00">Department</text>
</a>
</g>
</g>
<!-- Student -->
<g id="node4" class="node">
<title>Student</title>
<g id="a_node4"><a xlink:title="→ Person
------------------------------
→ Department
">
<polygon fill="#00ff00" fill-opacity="0.188235" stroke="#00ff00" stroke-opacity="0.188235" points="75,-35 17,-35 17,0 75,0 75,-35"/>
<text text-anchor="middle" x="46" y="-14.4" font-family="arial" font-size="12.00" fill="darkgreen">Student</text>
</a>
</g>
</g>
<!-- Department&#45;&gt;Student -->
<g id="edge1" class="edge">
<title>Department-&gt;Student</title>
<path fill="none" stroke="#000000" stroke-width="0.75" stroke-dasharray="5,2" stroke-opacity="0.250980" d="M36.9,-70.8C38.79,-59.95 41.24,-45.87 43.12,-35.05"/>
</g>
<!-- LanguageSkill -->
<g id="node2" class="node">
<title>LanguageSkill</title>
<g id="a_node2"><a xlink:title="→ Person
→ Language
------------------------------
skill_level          
">
<polygon fill="#00ff00" fill-opacity="0.188235" stroke="#00ff00" stroke-opacity="0.188235" points="193,-35 99,-35 99,0 193,0 193,-35"/>
<text text-anchor="middle" x="146" y="-14.4" font-family="arial" font-size="12.00" fill="darkgreen">LanguageSkill</text>
</a>
</g>
</g>
<!-- Employee -->
<g id="node3" class="node">
<title>Employee</title>
<g id="a_node3"><a xlink:title="→ Person
------------------------------
→ Title
">
<polygon fill="#00ff00" fill-opacity="0.188235" stroke="#00ff00" stroke-opacity="0.188235" points="285.5,-35 214.5,-35 214.5,0 285.5,0 285.5,-35"/>
<text text-anchor="middle" x="250" y="-14.4" font-family="arial" font-size="12.00" fill="darkgreen">Employee</text>
</a>
</g>
</g>
<!-- Language -->
<g id="node5" class="node">
<title>Language</title>
<g id="a_node5"><a xlink:title="lang_code            
------------------------------
language             
">
<polygon fill="#000000" fill-opacity="0.125490" stroke="transparent" points="218.5,-106 159.5,-106 159.5,-71 218.5,-71 218.5,-106"/>
<text text-anchor="start" x="167.5" y="-87" font-family="arial" text-decoration="underline" font-size="10.00">Language</text>
</a>
</g>
</g>
<!-- Language&#45;&gt;LanguageSkill -->
<g id="edge2" class="edge">
<title>Language-&gt;LanguageSkill</title>
<path fill="none" stroke="#000000" stroke-width="0.75" stroke-opacity="0.250980" d="M178.59,-70.8C171.83,-59.95 163.05,-45.87 156.31,-35.05"/>
</g>
<!-- Title -->
<g id="node6" class="node">
<title>Title</title>
<g id="a_node6"><a xlink:title="title_code           
------------------------------
full_title           
">
<polygon fill="#000000" fill-opacity="0.125490" stroke="transparent" points="271.5,-106 236.5,-106 236.5,-71 271.5,-71 271.5,-106"/>
<text text-anchor="start" x="244.5" y="-87" font-family="arial" text-decoration="underline" font-size="10.00">Title</text>
</a>
</g>
</g>
<!-- Title&#45;&gt;Employee -->
<g id="edge3" class="edge">
<title>Title-&gt;Employee</title>
<path fill="none" stroke="#000000" stroke-width="0.75" stroke-dasharray="5,2" stroke-opacity="0.250980" d="M253.03,-70.8C252.4,-59.95 251.59,-45.87 250.96,-35.05"/>
</g>
<!-- Person -->
<g id="node7" class="node">
<title>Person</title>
<g id="a_node7"><a xlink:title="person_id            
------------------------------
first_name           
last_name            
">
<polygon fill="#00ff00" fill-opacity="0.188235" stroke="#00ff00" stroke-opacity="0.188235" points="141.5,-106 86.5,-106 86.5,-71 141.5,-71 141.5,-106"/>
<text text-anchor="start" x="94.5" y="-86.4" font-family="arial" text-decoration="underline" font-size="12.00" fill="darkgreen">Person</text>
</a>
</g>
</g>
<!-- Person&#45;&gt;LanguageSkill -->
<g id="edge4" class="edge">
<title>Person-&gt;LanguageSkill</title>
<path fill="none" stroke="#000000" stroke-width="0.75" stroke-opacity="0.250980" d="M121.75,-70.8C126.78,-59.95 133.31,-45.87 138.33,-35.05"/>
</g>
<!-- Person&#45;&gt;Employee -->
<g id="edge5" class="edge">
<title>Person-&gt;Employee</title>
<path fill="none" stroke="#000000" stroke-width="2" stroke-opacity="0.250980" d="M141.52,-73.54C163.41,-62.43 194.09,-46.86 217.25,-35.12"/>
</g>
<!-- Person&#45;&gt;Student -->
<g id="edge6" class="edge">
<title>Person-&gt;Student</title>
<path fill="none" stroke="#000000" stroke-width="2" stroke-opacity="0.250980" d="M97.54,-70.8C86.85,-59.95 72.97,-45.87 62.31,-35.05"/>
</g>
</g>
</svg>