<svg xmlns="http://www.w3.org/2000/svg" xmlns:xlink="http://www.w3.org/1999/xlink" width="644pt" height="256pt" viewBox="0.00 0.00 644.00 256.00">
<g id="graph0" class="graph" transform="scale(1 1) rotate(0) translate(4 252)">
<polygon fill="white" stroke="none" points="-4,4 -4,-252 640,-252 640,4 -4,4"/>
<!-- 0 -->
<g id="node1" class="node">
<title>0</title>
<ellipse fill="#ff8800" fill-opacity="0.501961" stroke="#ff8800" stroke-opacity="0.501961" cx="22" cy="-88.5" rx="2" ry="2"/>
<text text-anchor="middle" x="22" y="-88.2" font-family="arial" font-size="1.00" fill="#ff8800" fill-opacity="0.501961">0</text>
</g>
<!-- Subordinate -->
<g id="node2" class="node">
<title>Subordinate</title>
<g id="a_node2"><a xlink:title="→ Employee
------------------------------
→ Employee.proj(manager_id=&quot;person_id&quot;)
">
<polygon fill="#00ff00" fill-opacity="0.188235" stroke="#00ff00" stroke-opacity="0.188235" points="82,-35 0,-35 0,0 82,0 82,-35"/>
<text text-anchor="middle" x="41" y="-14.4" font-family="arial" font-size="12.00" fill="darkgreen">Subordinate</text>
</a>
</g>
</g>
<!-- 0&#45;&gt;Subordinate -->
<g id="edge1" class="edge">
<title>0-&gt;Subordinate</title>
<path fill="none" stroke="#000000" stroke-width="0.75" stroke-dasharray="5,2" stroke-opacity="0.250980" d="M22.33,-86.3C23.98,-80.33 31.42,-53.29 36.4,-35.22"/>
</g>
<!-- AuthorBook -->
<g id="node3" class="node">
<title>AuthorBook</title>
<g id="a_node3"><a xlink:title="→ Author
→ Book
------------------------------
order                
UNIQUE INDEX (isbn, order)
">
<polygon fill="#00ff00" fill-opacity="0.188235" stroke="#00ff00" stroke-opacity="0.188235" points="294,-177 214,-177 214,-142 294,-142 294,-177"/>
<text text-anchor="middle" x="254" y="-156.4" font-family="arial" font-size="12.00" fill="darkgreen">AuthorBook</text>
</a>
</g>
</g>
<!-- Scan -->
<g id="node4" class="node">
<title>Scan</title>
<g id="a_node4"><a xlink:title="→ Session
scan_id              
------------------------------
laser_power          
">
<polygon fill="#00ff00" fill-opacity="0.188235" stroke="#00ff00" stroke-opacity="0.188235" points="364,-106 320,-106 320,-71 364,-71 364,-106"/>
<text text-anchor="start" x="328" y="-86.4" font-family="arial" text-decoration="underline" font-size="12.00" fill="darkgreen">Scan</text>
</a>
</g>
</g>
<!-- Cell -->
<g id="node10" class="node">
<title>Cell</title>
<g id="a_node10"><a xlink:title="→ Scan
cell_id              
------------------------------
cell_type            
">
<polygon fill="#00ff00" fill-opacity="0.188235" stroke="#00ff00" stroke-opacity="0.188235" points="361,-35 323,-35 323,0 361,0 361,-35"/>
<text text-anchor="start" x="331" y="-15.4" font-family="arial" text-decoration="underline" font-size="12.00" fill="darkgreen">Cell</text>
</a>
</g>
</g>
<!-- Scan&#45;&gt;Cell -->
<g id="edge2" class="edge">
<title>Scan-&gt;Cell</title>
<path fill="none" stroke="#000000" stroke-width="0.75" stroke-opacity="0.250980" d="M342,-70.8C342,-59.95 342,-45.87 342,-35.05"/>
</g>
<!-- Cell2 -->
<g id="node5" class="node">
<title>Cell2</title>
<g id="a_node5"><a xlink:title="cell_id              
------------------------------
→ Scan2
cell_type            
">
<polygon fill="#00ff00" fill-opacity="0.188235" stroke="#00ff00" stroke-opacity="0.188235" points="446.5,-35 401.5,-35 401.5,0 446.5,0 446.5,-35"/>
<text text-anchor="start" x="409.5" y="-15.4" font-family="arial" text-decoration="underline" font-size="12.00" fill="darkgreen">Cell2</text>
</a>
</g>
</g>
<!-- Session -->
<g id="node6" class="node">
<title>Session</title>
<g id="a_node6"><a xlink:title="→ Subject
session              
------------------------------
session_timestamp=&quot;current_timestamp()&quot; 
">
<polygon fill="#00ff00" fill-opacity="0.188235" stroke="#00ff00" stroke-opacity="0.188235" points="372,-177 312,-177 312,-142 372,-142 372,-177"/>
<text text-anchor="start" x="320" y="-157.4" font-family="arial" text-decoration="underline" font-size="12.00" fill="darkgreen">Session</text>
</a>
</g>
</g>
<!-- Session&#45;&gt;Scan -->
<g id="edge3" class="edge">
<title>Session-&gt;Scan</title>
<path fill="none" stroke="#000000" stroke-width="0.75" stroke-opacity="0.250980" d="M342,-141.8C342,-130.95 342,-116.87 342,-106.05"/>
</g>
<!-- Confirm -->
<g id="node7" class="node">
<title>Confirm</title>
<g id="a_node7"><a xlink:title="→ Shipment
------------------------------
confirm_date         
">
<polygon fill="#00ff00" fill-opacity="0.188235" stroke="#00ff00" stroke-opacity="0.188235" points="539.5,-106 480.5,-106 480.5,-71 539.5,-71 539.5,-106"/>
<text text-anchor="middle" x="510" y="-85.4" font-family="arial" font-size="12.00" fill="darkgreen">Confirm</text>
</a>
</g>
</g>
<!-- Scan2 -->
<g id="node8" class="node">
<title>Scan2</title>
<g id="a_node8"><a xlink:title="scan_id              
------------------------------
→ Session2
laser_power          
">
<polygon fill="#00ff00" fill-opacity="0.188235" stroke="#00ff00" stroke-opacity="0.188235" points="449.5,-106 398.5,-106 398.5,-71 449.5,-71 449.5,-106"/>
<text text-anchor="start" x="406.5" y="-86.4" font-family="arial" text-decoration="underline" font-size="12.00" fill="darkgreen">Scan2</text>
</a>
</g>
</g>
<!-- Scan2&#45;&gt;Cell2 -->
<g id="edge4" class="edge">
<title>Scan2-&gt;Cell2</title>
<path fill="none" stroke="#000000" stroke-width="0.75" stroke-dasharray="5,2" stroke-opacity="0.250980" d="M424,-70.8C424,-59.95 424,-45.87 424,-35.05"/>
</g>
<!-- Subject -->
<g id="node9" class="node">
<title>Subject</title>
<g id="a_node9"><a xlink:title="subject_id           
------------------------------
species=&quot;mouse&quot;      
sex                  
">
<polygon fill="#00ff00" fill-opacity="0.188235" stroke="#00ff00" stroke-opacity="0.188235" points="370.5,-248 313.5,-248 313.5,-213 370.5,-213 370.5,-248"/>
<text text-anchor="start" x="321.5" y="-228.4" font-family="arial" text-decoration="underline" font-size="12.00" fill="darkgreen">Subject</text>
</a>
</g>
</g>
<!-- Subject&#45;&gt;Session -->
<g id="edge5" class="edge">
<title>Subject-&gt;Session</title>
<path fill="none" stroke="#000000" stroke-width="0.75" stroke-opacity="0.250980" d="M342,-212.8C342,-201.95 342,-187.87 342,-177.05"/>
</g>
<!-- Shipment2 -->
<g id="node11" class="node">
<title>Shipment2</title>
<g id="a_node11"><a xlink:title="shipment_id          
------------------------------
→ [unique] Order2
ship_date            
">
<polygon fill="#00ff00" fill-opacity="0.188235" stroke="#00ff00" stroke-opacity="0.188235" points="636,-177 562,-177 562,-142 636,-142 636,-177"/>
<text text-anchor="start" x="570" y="-157.4" font-family="arial" text-decoration="underline" font-size="12.00" fill="darkgreen">Shipment2</text>
</a>
</g>
</g>
<!-- Confirm2 -->
<g id="node13" class="node">
<title>Confirm2</title>
<g id="a_node13"><a xlink:title="confirm_id           
------------------------------
→ [unique] Shipment2
confirm_date         
">
<polygon fill="#00ff00" fill-opacity="0.188235" stroke="#00ff00" stroke-opacity="0.188235" points="631.5,-106 566.5,-106 566.5,-71 631.5,-71 631.5,-106"/>
<text text-anchor="start" x="574.5" y="-86.4" font-family="arial" text-decoration="underline" font-size="12.00" fill="darkgreen">Confirm2</text>
</a>
</g>
</g>
<!-- Shipment2&#45;&gt;Confirm2 -->
<g id="edge6" class="edge">
<title>Shipment2-&gt;Confirm2</title>
<path fill="none" stroke="#000000" stroke-width="0.75" stroke-dasharray="5,2" stroke-opacity="0.250980" d="M599,-141.8C599,-130.95 599,-116.87 599,-106.05"/>
</g>
<!-- Employee -->
<g id="node12" class="node">
<title>Employee</title>
<g id="a_node12"><a xlink:title="→ Person
------------------------------
hire_date            
">
<polygon fill="#00ff00" fill-opacity="0.188235" stroke="#00ff00" stroke-opacity="0.188235" points="94.5,-177 23.5,-177 23.5,-142 94.5,-142 94.5,-177"/>
<text text-anchor="middle" x="59" y="-156.4" font-family="arial" font-size="12.00" fill="darkgreen">Employee</text>
</a>
</g>
</g>
<!-- Employee&#45;&gt;0 -->
<g id="edge7" class="edge">
<title>Employee-&gt;0</title>
<path fill="none" stroke="#000000" stroke-width="0.75" stroke-dasharray="5,2" stroke-opacity="0.250980" d="M50.04,-141.8C40.46,-123.93 26.18,-97.29 22.76,-90.91"/>
</g>
<!-- Employee&#45;&gt;Subordinate -->
<g id="edge8" class="edge">
<title>Employee-&gt;Subordinate</title>
<path fill="none" stroke="#000000" stroke-width="2" stroke-opacity="0.250980" d="M56.86,-141.89C53.4,-114.95 46.6,-62.02 43.13,-35.09"/>
</g>
<!-- Instructor -->
<g id="node22" class="node">
<title>Instructor</title>
<g id="a_node22"><a xlink:title="→ Employee
------------------------------
department           
">
<polygon fill="#00ff00" fill-opacity="0.188235" stroke="#00ff00" stroke-opacity="0.188235" points="152.5,-106 87.5,-106 87.5,-71 152.5,-71 152.5,-106"/>
<text text-anchor="middle" x="120" y="-85.4" font-family="arial" font-size="12.00" fill="darkgreen">Instructor</text>
</a>
</g>
</g>
<!-- Employee&#45;&gt;Instructor -->
<g id="edge9" class="edge">
<title>Employee-&gt;Instructor</title>
<path fill="none" stroke="#000000" stroke-width="2" stroke-opacity="0.250980" d="M73.77,-141.8C83.36,-130.95 95.81,-116.87 105.37,-106.05"/>
</g>
<!-- Shipment -->
<g id="node14" class="node">
<title>Shipment</title>
<g id="a_node14"><a xlink:title="→ Order
------------------------------
ship_date            
">
<polygon fill="#00ff00" fill-opacity="0.188235" stroke="#00ff00" stroke-opacity="0.188235" points="544,-177 476,-177 476,-142 544,-142 544,-177"/>
<text text-anchor="middle" x="510" y="-156.4" font-family="arial" font-size="12.00" fill="darkgreen">Shipment</text>
</a>
</g>
</g>
<!-- Shipment&#45;&gt;Confirm -->
<g id="edge10" class="edge">
<title>Shipment-&gt;Confirm</title>
<path fill="none" stroke="#000000" stroke-width="2" stroke-opacity="0.250980" d="M510,-141.8C510,-130.95 510,-116.87 510,-106.05"/>
</g>
<!-- Session2 -->
<g id="node15" class="node">
<title>Session2</title>
<g id="a_node15"><a xlink:title="session              
------------------------------
→ Subject2
session_timestamp=&quot;current_timestamp()&quot; 
">
<polygon fill="#00ff00" fill-opacity="0.188235" stroke="#00ff00" stroke-opacity="0.188235" points="457.5,-177 390.5,-177 390.5,-142 457.5,-142 457.5,-177"/>
<text text-anchor="start" x="398.5" y="-157.4" font-family="arial" text-decoration="underline" font-size="12.00" fill="darkgreen">Session2</text>
</a>
</g>
</g>
<!-- Session2&#45;&gt;Scan2 -->
<g id="edge11" class="edge">
<title>Session2-&gt;Scan2</title>
<path fill="none" stroke="#000000" stroke-width="0.75" stroke-dasharray="5,2" stroke-opacity="0.250980" d="M424,-141.8C424,-130.95 424,-116.87 424,-106.05"/>
</g>
<!-- Person -->
<g id="node16" class="node">
<title>Person</title>
<g id="a_node16"><a xlink:title="person_id            
------------------------------
date_of_birth        
gender               
">
<polygon fill="#00ff00" fill-opacity="0.188235" stroke="#00ff00" stroke-opacity="0.188235" points="124.5,-248 69.5,-248 69.5,-213 124.5,-213 124.5,-248"/>
<text text-anchor="start" x="77.5" y="-228.4" font-family="arial" text-decoration="underline" font-size="12.00" fill="darkgreen">Person</text>
</a>
</g>
</g>
<!-- Person&#45;&gt;Employee -->
<g id="edge12" class="edge">
<title>Person-&gt;Employee</title>
<path fill="none" stroke="#000000" stroke-width="2" stroke-opacity="0.250980" d="M87.8,-212.8C81.83,-201.95 74.07,-187.87 68.11,-177.05"/>
</g>
<!-- Student -->
<g id="node23" class="node">
<title>Student</title>
<g id="a_node23"><a xlink:title="→ Person
------------------------------
admission_date       
">
<polygon fill="#00ff00" fill-opacity="0.188235" stroke="#00ff00" stroke-opacity="0.188235" points="171,-177 113,-177 113,-142 171,-142 171,-177"/>
<text text-anchor="middle" x="142" y="-156.4" font-family="arial" font-size="12.00" fill="darkgreen">Student</text>
</a>
</g>
</g>
<!-- Person&#45;&gt;Student -->
<g id="edge13" class="edge">
<title>Person-&gt;Student</title>
<path fill="none" stroke="#000000" stroke-width="2" stroke-opacity="0.250980" d="M107.89,-212.8C114.97,-201.95 124.15,-187.87 131.21,-177.05"/>
</g>
<!-- Order2 -->
<g id="node17" class="node">
<title>Order2</title>
<g id="a_node17"><a xlink:title="order_number         
------------------------------
order_date           
">
<polygon fill="#00ff00" fill-opacity="0.188235" stroke="#00ff00" stroke-opacity="0.188235" points="625.5,-248 572.5,-248 572.5,-213 625.5,-213 625.5,-248"/>
<text text-anchor="start" x="580.5" y="-228.4" font-family="arial" text-decoration="underline" font-size="12.00" fill="darkgreen">Order2</text>
</a>
</g>
</g>
<!-- Order2&#45;&gt;Shipment2 -->
<g id="edge14" class="edge">
<title>Order2-&gt;Shipment2</title>
<path fill="none" stroke="#000000" stroke-width="0.75" stroke-dasharray="5,2" stroke-opacity="0.250980" d="M599,-212.8C599,-201.95 599,-187.87 599,-177.05"/>
</g>
<!-- Order -->
<g id="node18" class="node">
<title>Order</title>
<g id="a_node18"><a xlink:title="order_number         
------------------------------
order_date           
">
<polygon fill="#00ff00" fill-opacity="0.188235" stroke="#00ff00" stroke-opacity="0.188235" points="533.5,-248 486.5,-248 486.5,-213 533.5,-213 533.5,-248"/>
<text text-anchor="start" x="494.5" y="-228.4" font-family="arial" text-decoration="underline" font-size="12.00" fill="darkgreen">Order</text>
</a>
</g>
</g>
<!-- Order&#45;&gt;Shipment -->
<g id="edge15" class="edge">
<title>Order-&gt;Shipment</title>
<path fill="none" stroke="#000000" stroke-width="2" stroke-opacity="0.250980" d="M510,-212.8C510,-201.95 510,-187.87 510,-177.05"/>
</g>
<!-- Author -->
<g id="node19" class="node">
<title>Author</title>
<g id="a_node19"><a xlink:title="author_id            
------------------------------
name                 
">
<polygon fill="#00ff00" fill-opacity="0.188235" stroke="#00ff00" stroke-opacity="0.188235" points="223,-248 171,-248 171,-213 223,-213 223,-248"/>
<text text-anchor="start" x="179" y="-228.4" font-family="arial" text-decoration="underline" font-size="12.00" fill="darkgreen">Author</text>
</a>
</g>
</g>
<!-- Author&#45;&gt;AuthorBook -->
<g id="edge16" class="edge">
<title>Author-&gt;AuthorBook</title>
<path fill="none" stroke="#000000" stroke-width="0.75" stroke-opacity="0.250980" d="M210.8,-212.8C219.76,-201.95 231.39,-187.87 240.33,-177.05"/>
</g>
<!-- Book -->
<g id="node20" class="node">
<title>Book</title>
<g id="a_node20"><a xlink:title="isbn                 
------------------------------
title                
">
<polygon fill="#00ff00" fill-opacity="0.188235" stroke="#00ff00" stroke-opacity="0.188235" points="285,-248 241,-248 241,-213 285,-213 285,-248"/>
<text text-anchor="start" x="249" y="-228.4" font-family="arial" text-decoration="underline" font-size="12.00" fill="darkgreen">Book</text>
</a>
</g>
</g>
<!-- Book&#45;&gt;AuthorBook -->
<g id="edge17" class="edge">
<title>Book-&gt;AuthorBook</title>
<path fill="none" stroke="#000000" stroke-width="0.75" stroke-opacity="0.250980" d="M260.82,-212.8C259.41,-201.95 257.57,-187.87 256.16,-177.05"/>
</g>
<!-- Subject2 -->
<g id="node21" class="node">
<title>Subject2</title>
<g id="a_node21"><a xlink:title="subject_id           
------------------------------
species=&quot;mouse&quot;      
sex                  
">
<polygon fill="#00ff00" fill-opacity="0.188235" stroke="#00ff00" stroke-opacity="0.188235" points="456,-248 392,-248 392,-213 456,-213 456,-248"/>
<text text-anchor="start" x="400" y="-228.4" font-family="arial" text-decoration="underline" font-size="12.00" fill="darkgreen">Subject2</text>
</a>
</g>
</g>
<!-- Subject2&#45;&gt;Session2 -->
<g id="edge18" class="edge">
<title>Subject2-&gt;Session2</title>
<path fill="none" stroke="#000000" stroke-width="0.75" stroke-dasharray="5,2" stroke-opacity="0.250980" d="M424,-212.8C424,-201.95 424,-187.87 424,-177.05"/>
</g>
</g>
</svg>